<?xml version="1.0" standalone="no"?>
<!DOCTYPE svg PUBLIC "-//W3C//DTD SVG 20010904//EN" "http://www.w3.org/TR/2001/REC-SVG-20010904/DTD/svg10.dtd">
<!-- Created using Krita: https://krita.org -->
<svg xmlns="http://www.w3.org/2000/svg" 
    xmlns:xlink="http://www.w3.org/1999/xlink"
    xmlns:krita="http://krita.org/namespaces/svg/krita"
    xmlns:sodipodi="http://sodipodi.sourceforge.net/DTD/sodipodi-0.dtd"
    width="588pt"
    height="305.25pt"
    viewBox="0 0 588 305.25">
<defs/>
<path id="shape2" transform="matrix(0.908065908040833 0 0 0.908065908040833 547.163791549345 134.999999592869)" fill="#27abd2" fill-rule="evenodd" stroke-opacity="0" stroke="#000000" stroke-width="0" stroke-linecap="square" stroke-linejoin="bevel" d="M5.625 0L44.25 0.75L34.5 37.5L0 24.375C3.35153 14.2813 5.27332 6.09391 5.625 0Z" sodipodi:nodetypes="ccccc"/><path id="shape3" transform="matrix(0.908065908040833 0 0 0.908065908040833 537.629099609998 160.879877713954)" fill="#40fde9" fill-rule="evenodd" stroke-opacity="0" stroke="#000000" stroke-width="0" stroke-linecap="square" stroke-linejoin="bevel" d="M9 0L43.125 14.25L29.25 46.5L0 20.25Z" sodipodi:nodetypes="ccccc"/><path id="shape4" transform="matrix(0.908065908040833 0 0 0.908065908040833 566.573700140159 174.841390910856)" fill="#39ffed" fill-rule="evenodd" stroke-opacity="0" stroke="#000000" stroke-width="0" stroke-linecap="square" stroke-linejoin="bevel" d="M14.25 0L0 33L40.5089 70.0936L62.6339 21.3645Z" sodipodi:nodetypes="ccccc"/><path id="shape01" transform="matrix(0.908065908040833 0 0 0.908065908040833 580.807633146826 136.38338249761)" fill="#27abd2" fill-rule="evenodd" stroke-opacity="0" stroke="#000000" stroke-width="0" stroke-linecap="square" stroke-linejoin="bevel" d="M10.4344 0L49.0312 9.53906L30 51.3516L0 38.7891C3.35153 28.6954 10.0827 6.09391 10.4344 0Z" sodipodi:nodetypes="ccccc"/><path id="shape5" transform="matrix(0.908065908040833 0 0 0.908065908040833 524.093228397367 181.907274173824)" fill="#2abadd" fill-rule="evenodd" stroke-opacity="0" stroke="#000000" stroke-width="0" stroke-linecap="square" stroke-linejoin="bevel" d="M13.7812 0L42.4687 27.2812L21.0937 63.8437L0 23.0625Z" sodipodi:nodetypes="ccccc"/><path id="shape6" transform="matrix(0.908065908040833 0 0 0.908065908040833 544.013923462677 209.234381507005)" fill="#2abadd" fill-rule="evenodd" stroke-opacity="0" stroke="#000000" stroke-width="0" stroke-linecap="square" stroke-linejoin="bevel" d="M22.5 0L72.5625 45.2812L40.5 114.469L0 36.5625Z" sodipodi:nodetypes="ccccc"/><path id="shape7" transform="matrix(0.908065908040833 0 0 0.908065908040833 501.618598067273 205.658872136308)" fill="#7efbe9" fill-rule="evenodd" stroke-opacity="0" stroke="#000000" stroke-width="0" stroke-linecap="square" stroke-linejoin="bevel" d="M22.5 0L0 32.7187L7.3125 89.1562L43.0312 41.3437Z" sodipodi:nodetypes="ccccc"/><path id="shape8" transform="matrix(0.908065908040833 0 0 0.908065908040833 508.769616808667 246.521836372842)" fill="#7efbe9" fill-rule="evenodd" stroke-opacity="0" stroke="#000000" stroke-width="0" stroke-linecap="square" stroke-linejoin="bevel" d="M36.8437 0L73.125 72L8.15625 93.375L0 48.375Z" sodipodi:nodetypes="ccccc"/><path id="shape9" transform="matrix(0.908065908040833 0 0 0.908065908040833 450.795286298085 237.838456472579)" fill="#2cc0de" fill-rule="evenodd" stroke-opacity="0" stroke="#000000" stroke-width="0" stroke-linecap="square" stroke-linejoin="bevel" d="M52.875 0L61.875 90L0 89.7187L6.28125 55.3125C24.1834 38.6532 38.9402 19.6349 52.875 0Z" sodipodi:nodetypes="ccccc"/><path id="shape10" transform="matrix(0.908065908040833 0 0 0.908065908040833 424.234359544339 291.215703506551)" fill="#83d8db" fill-rule="evenodd" stroke-opacity="0" stroke="#000000" stroke-width="0" stroke-linecap="square" stroke-linejoin="bevel" d="M31.3125 0L25.3125 32.625L0 31.2187C10.9747 20.8125 23.9659 10.4062 31.3125 0Z" sodipodi:nodetypes="cccc"/><path id="shape11" transform="translate(340.031246609148, 6.46874993549248)" fill="#acfef0" fill-rule="evenodd" stroke-opacity="0" stroke="#000000" stroke-width="0" stroke-linecap="square" stroke-linejoin="bevel" d="M66.375 31.7812L0 0Z" sodipodi:nodetypes="ccc"/>
</svg>
