<?xml version="1.0" standalone="no"?>
<!DOCTYPE svg PUBLIC "-//W3C//DTD SVG 20010904//EN" "http://www.w3.org/TR/2001/REC-SVG-20010904/DTD/svg10.dtd">
<!-- Created using Krita: https://krita.org -->
<svg xmlns="http://www.w3.org/2000/svg" 
    xmlns:xlink="http://www.w3.org/1999/xlink"
    xmlns:krita="http://krita.org/namespaces/svg/krita"
    xmlns:sodipodi="http://sodipodi.sourceforge.net/DTD/sodipodi-0.dtd"
    width="588pt"
    height="305.25pt"
    viewBox="0 0 588 305.25">
<defs/>
<path id="shape0" transform="matrix(0.767428913344524 0 0 0.767428913344524 84.1610688918861 3.37499996438016)" fill="#acfef0" fill-rule="evenodd" stroke-opacity="0" stroke="#000000" stroke-width="0" stroke-linecap="square" stroke-linejoin="bevel" d="M45.9536 33.6054L0 33.4687L0.46875 0L78.4619 0.139316C52.7317 16.1439 51.0964 24.3037 45.9536 33.6054Z" sodipodi:nodetypes="ccccc"/><rect id="shape1" transform="matrix(0.767428913344524 0 0 0.767428913344524 42.9375628081407 3.4469464800373)" fill="#30c6e9" fill-rule="evenodd" stroke-opacity="0" stroke="#000000" stroke-width="0" stroke-linecap="square" stroke-linejoin="bevel" width="22.4999999999982" height="33.3750000523935"/><rect id="shape01" transform="matrix(0.767428913344524 0 0 0.767428913344524 23.2961798942692 3.41816800282652)" fill="#30c6e9" fill-rule="evenodd" stroke-opacity="0" stroke="#000000" stroke-width="0" stroke-linecap="square" stroke-linejoin="bevel" width="22.4999999999982" height="33.3750000523935"/><rect id="shape02" transform="matrix(0.767428913344524 0 0 0.767428913344524 3.54687731948121 3.38938952561573)" fill="#30c6e9" fill-rule="evenodd" stroke-opacity="0" stroke="#000000" stroke-width="0" stroke-linecap="square" stroke-linejoin="bevel" width="22.4999999999982" height="33.3750000523935"/><path id="shape2" transform="matrix(0.767428913344524 0 0 0.767428913344524 84.0171741452362 33.3766715120347)" fill="#3afded" fill-rule="evenodd" stroke-opacity="0" stroke="#000000" stroke-width="0" stroke-linecap="square" stroke-linejoin="bevel" d="M0 0L0.375 253.687C3.77228 250.358 6.08388 71.9514 44.8125 3.35276e-08C42.9375 2.23517e-08 0.749999 1.11759e-08 0 0Z" sodipodi:nodetypes="cccc"/><rect id="shape11" transform="matrix(0.767428913344524 0 0 0.767428913344524 63.0392767348674 3.14886554964201)" fill="#30c6e9" fill-rule="evenodd" stroke-opacity="0" stroke="#000000" stroke-width="0" stroke-linecap="square" stroke-linejoin="bevel" width="22.4999999999982" height="33.3750000523935"/>
</svg>
