<?xml version="1.0" standalone="no"?>
<!DOCTYPE svg PUBLIC "-//W3C//DTD SVG 20010904//EN" "http://www.w3.org/TR/2001/REC-SVG-20010904/DTD/svg10.dtd">
<!-- Created using Krita: https://krita.org -->
<svg xmlns="http://www.w3.org/2000/svg" 
    xmlns:xlink="http://www.w3.org/1999/xlink"
    xmlns:krita="http://krita.org/namespaces/svg/krita"
    xmlns:sodipodi="http://sodipodi.sourceforge.net/DTD/sodipodi-0.dtd"
    width="588pt"
    height="305.25pt"
    viewBox="0 0 588 305.25">
<defs/>
<path id="shape0" transform="matrix(0.816119199545847 0 0 0.816119199545847 401.746828728791 2.94574220087963)" fill="#3afded" fill-rule="evenodd" stroke-opacity="0" stroke="#000000" stroke-width="0" stroke-linecap="square" stroke-linejoin="bevel" d="M0 0L225.904 0.0664827L225.716 69.6542L186.808 83.1026C182.045 32.1076 127.182 16.8919 54.6015 26.7592Z" sodipodi:nodetypes="cccccc"/><path id="shape1" transform="matrix(0.816119199545847 0 0 0.816119199545847 554.185044866991 62.2196489470736)" fill="#38fbea" fill-rule="evenodd" stroke-opacity="0" stroke="#000000" stroke-width="0" stroke-linecap="square" stroke-linejoin="bevel" d="M0.0541104 14.8429L39.375 0L38.0625 37.0312L0 36.5625C0.44257 22.5118 0.569189 19.3171 0.0541104 14.8429Z" sodipodi:nodetypes="ccccc"/><path id="shape02" transform="matrix(0.816119199545847 0 0 0.816119199545847 588.431445518052 56.4966133889232)" fill="#38fbea" fill-rule="evenodd" stroke-opacity="0" stroke="#000000" stroke-width="0" stroke-linecap="square" stroke-linejoin="bevel" d="M0.412507 11.5312L31.7812 0L30.75 45.1875L0 44.4375C0.44257 30.3868 0.927586 16.0054 0.412507 11.5312Z" sodipodi:nodetypes="ccccc"/><path id="shape11" transform="matrix(0.816119199545847 0 0 0.816119199545847 386.396039852483 5.83091341527775)" fill="#acfef0" fill-rule="evenodd" stroke-opacity="0" stroke="#000000" stroke-width="0" stroke-linecap="square" stroke-linejoin="bevel" d="M66.375 31.7812L0 0Z" sodipodi:nodetypes="ccc"/>
</svg>
