<?xml version="1.0" standalone="no"?>
<!DOCTYPE svg PUBLIC "-//W3C//DTD SVG 20010904//EN" "http://www.w3.org/TR/2001/REC-SVG-20010904/DTD/svg10.dtd">
<!-- Created using Krita: https://krita.org -->
<svg xmlns="http://www.w3.org/2000/svg" 
    xmlns:xlink="http://www.w3.org/1999/xlink"
    xmlns:krita="http://krita.org/namespaces/svg/krita"
    xmlns:sodipodi="http://sodipodi.sourceforge.net/DTD/sodipodi-0.dtd"
    width="35.4462pt"
    height="35.4462pt"
    viewBox="0 0 35.4462 35.4462">
<defs/>
<path id="shape0" transform="translate(1.27211527087941, 0.804807620352278)" fill="#000000" fill-rule="evenodd" stroke-opacity="0" stroke="#000000" stroke-width="0" stroke-linecap="square" stroke-linejoin="bevel" d="M10.125 24.6115L5.45192 21.7298L1.47981 21.4183L0 22.976L0.311538 23.7548L3.58269 24.6894L7.94423 29.2846L11.0596 32.5558L16.451 33.0231L23.0538 32.3221L27.8827 30.8423L29.7519 26.2471L30.375 15.8885L28.7394 6.73702L26.5786 5.77838L26.0913 15.6159L25.8577 2.025L24.6894 1.47981L22.8981 1.71346L22.7423 2.95962L22.275 10.3587L21.4962 13.9413L20.5615 13.3962L14.876 0.311538L13.2404 0L12.15 1.16827L16.451 15.5769L11.3712 1.63558L9.81346 3.34904L10.0471 5.52981L11.7606 16.9183L11.2933 23.599Z" sodipodi:nodetypes="ccccccccccccccccccccccccccccccccc"/>
</svg>
